# xmcd
#
# Track frame offsets:
# 183
# 10998
# 26343
# 37198
# 48915
# 61763
# 72115
# 84893
# 98085
# 111108
# 129248
# 152500
# 162620
# 177218
# 196155
# 206710
# 224005
# 233750
# 248900
# 261665
# 270930
# 285145
# 292768
#
# Disc length: 4158 seconds
#
#
# Revision: 2
# Processed by: cddbd v1.5.2PL0 Copyright (c) Steve Scherf et al.
# Submitted via: FreeRIP 2.951 
#
DISCID=38103c17
DTITLE=JJ Cale - Cajun Moon
DYEAR=1900
DGENRE=
TTITLE0=Crazy Mama
TTITLE1=Magnolia
TTITLE2=After Midnight
TTITLE3=Call Me The Breeze
TTITLE4=Lies
TTITLE5=Cajun Moon
TTITLE6=Cocaine
TTITLE7=Cherry
TTITLE8=The Woman That Got Away
TTITLE9=You Got Something
TTITLE10=Sensitive Kind
TTITLE11=Don't Cry Sister
TTITLE12=I'll Make Love To You
TTITLE13=Friday
TTITLE14=Carry On
TTITLE15=Mama Don't
TTITLE16=Deep Dark Dungeon
TTITLE17=Wish I Had Not Said That
TTITLE18=City Girls
TTITLE19=Devil In Disguise
TTITLE20=Don't Wait
TTITLE21=Drifter's Wife
TTITLE22=Money Talks
EXTD=Compilation disk (includes many bonus tracks]\n
EXTT0=
EXTT1=
EXTT2=
EXTT3=
EXTT4=
EXTT5=
EXTT6=
EXTT7=
EXTT8=
EXTT9=
EXTT10=
EXTT11=
EXTT12=
EXTT13=
EXTT14=
EXTT15=
EXTT16=
EXTT17=
EXTT18=
EXTT19=
EXTT20=
EXTT21=
EXTT22=
PLAYORDER=
